# xmcd
#
# Track frame offsets: 
#        150
#        12382
#        29097
#        42955
#        54242
#        65982
#        75725
#        88545
#        96765
#        109055
#
# Disc length: 1630 seconds
#
# Revision: 5
# Processed by: cddbd v1.5.2PL0 Copyright (c) Steve Scherf et al.
# Submitted via: ExactAudioCopy v0.95b4
#
DISCID=80065c0a
DTITLE=Ricky Skaggs and Tony Rice - Skaggs and Rice
DYEAR=1980
DGENRE=Country
TTITLE0=Bury Me Beneath The Weeping Willow
TTITLE1=Mansions For Me
TTITLE2=There's More Pretty Girls Than One
TTITLE3=Memories Of Mother And Dad
TTITLE4=Where The Soul Of Man Never Dies
TTITLE5=Talk About Suffering
TTITLE6=Will The Roses Bloom
TTITLE7=Tennessee Blues
TTITLE8=The Old Crossroads
TTITLE9=Have You Someone In Heaven Awaiting
EXTD=
EXTT0=Traditional, arr. Skaggs and Rice
EXTT1=B. Monroe
EXTT2=Traditional, arr. Skaggs and Rice
EXTT3=A. Price
EXTT4=Traditional, arr. Skaggs and Rice
EXTT5=Traditional, arr. Skaggs and Rice
EXTT6=I. and J. Bevins
EXTT7=B. Monroe
EXTT8=C. Monroe
EXTT9=R. and C. Stanley
PLAYORDER=
